<?xml version="1.0" encoding="UTF-8" standalone="no"?>
<!-- Created with Inkscape (http://www.inkscape.org/) -->
<svg xmlns:svg="http://www.w3.org/2000/svg" xmlns="http://www.w3.org/2000/svg" version="1.0" width="348" height="348" id="svg2">
  <defs id="defs4"/>
  <g id="layer1">
    <path d="M 153.45067,278.96681 L 153.45067,262.46681 L 169.95067,262.46681 L 186.45067,262.46681 L 186.45067,278.96681 L 186.45067,295.46681 L 169.95067,295.46681 L 153.45067,295.46681 L 153.45067,278.96681 z M 157.45067,228.05478 C 157.45067,209.85645 161.89171,195.93357 171.92774,182.66845 C 174.54858,179.20435 184.13673,169.76851 193.23473,161.69991 C 217.25614,140.39645 222.28889,132.42613 221.21312,117.39082 C 219.65562,95.622717 198.57786,77.423867 174.99057,77.481587 C 150.81401,77.540757 134.25562,91.871407 127.92295,118.21681 C 126.96447,122.20431 125.9036,125.45647 125.56546,125.44383 C 125.22733,125.43119 119.10067,124.54153 111.95067,123.46681 C 104.80067,122.39209 98.563094,121.50243 98.089384,121.48979 C 97.615674,121.47715 97.527754,119.77931 97.894004,117.71681 C 102.85139,89.799897 114.53392,71.889447 134.59314,61.453497 C 153.83823,51.441097 181.32199,49.699807 204.42701,57.029027 C 237.27048,67.447407 256.65693,100.88062 248.45353,132.95564 C 244.60498,148.0033 235.69128,160.01201 213.60587,179.90306 C 199.04556,193.01668 193.58887,199.47159 190.5682,207.15512 C 188.50119,212.41285 186.45067,225.37848 186.45067,233.19058 L 186.45067,237.46681 L 171.95067,237.46681 L 157.45067,237.46681 L 157.45067,228.05478 z " style="fill:#000000" id="path2221"/>
  </g>
</svg>